D:\school\WTK\thesis\model\3dpredictsim\Results\Batchsim_tmt_linear_v2\Pog_s1_tmt_bCst_d05_k800_ig24_pas_GRF.mot
nRows=12
nColumns=19

name D:\school\WTK\thesis\model\3dpredictsim\Results\Batchsim_tmt_linear_v2\Pog_s1_tmt_bCst_d05_k800_ig24_pas_GRF.mot
datacolumns 19
datarows 12
range 0.5412343316 0.6603058846
endheader
time 	ground_force_vx	ground_force_vy	ground_force_vz	ground_force_px	ground_force_py	ground_force_pz	1_ground_force_vx	1_ground_force_vy	1_ground_force_vz	1_ground_force_px	1_ground_force_py	1_ground_force_pz	ground_torque_x	ground_torque_y	ground_torque_z	1_ground_torque_x	1_ground_torque_y	1_ground_torque_z
        0.5412343316	      110.4689700260	      462.2672786764	       -2.5704318799	        0.3249539567	        0.0000000000	        0.0468498202	      -79.8673324799	       61.0537780555	      -17.1675119377	        0.8357421021	        0.0000000000	       -0.0456826784	        0.0000000000	        0.0000000000	        0.0000000000	        0.0000000000	        0.0000000000	        0.0000000000	
        0.5520590182	       76.5959143603	      361.6548470549	        3.5607316547	        0.3396305306	        0.0000000000	        0.0445002390	     -140.7097924666	      141.5144816553	      -44.1197907510	        0.8439118118	        0.0000000000	       -0.0441409909	        0.0000000000	        0.0000000000	        0.0000000000	        0.0000000000	        0.0000000000	        0.0000000000	
        0.5628837049	       39.4614673315	      256.7649723498	        7.1283121463	        0.3633015482	        0.0000000000	        0.0401688838	      -63.3377768059	      295.8751224184	      -18.2402791715	        0.8505763959	        0.0000000000	       -0.0427133300	        0.0000000000	        0.0000000000	        0.0000000000	        0.0000000000	        0.0000000000	        0.0000000000	
        0.5737083915	       12.1850460989	      173.6020131488	        8.2789252971	        0.3945063432	        0.0000000000	        0.0327911103	      -62.5328215153	      485.2000791385	        0.3665376829	        0.8556129728	        0.0000000000	       -0.0433541492	        0.0000000000	        0.0000000000	        0.0000000000	        0.0000000000	        0.0000000000	        0.0000000000	
        0.5845330781	       -0.2146949172	      140.2259006106	       11.2249752084	        0.4038400396	        0.0000000000	        0.0298052848	     -102.6439090867	      729.2866475775	       11.9293282064	        0.8656215770	        0.0000000000	       -0.0462672484	        0.0000000000	        0.0000000000	        0.0000000000	        0.0000000000	        0.0000000000	        0.0000000000	
        0.5953577648	       -0.8774598120	      106.6980451004	       12.2850136720	        0.4043880556	        0.0000000000	        0.0299811427	     -129.6422533599	      893.5953104887	       18.0093721307	        0.8726568934	        0.0000000000	       -0.0482399061	        0.0000000000	        0.0000000000	        0.0000000000	        0.0000000000	        0.0000000000	        0.0000000000	
        0.6061824514	       -3.8641308155	       68.8728904797	       11.7889000455	        0.4048592182	        0.0000000000	        0.0301333436	     -133.5766258796	      939.5933215639	       19.5053893798	        0.8774853087	        0.0000000000	       -0.0494703264	        0.0000000000	        0.0000000000	        0.0000000000	        0.0000000000	        0.0000000000	        0.0000000000	
        0.6170071380	       -8.4922293167	       28.5096041800	        6.2765535631	        0.4045026814	        0.0000000000	        0.0299481258	     -124.5720585781	      910.9754397694	       19.0480253540	        0.8812921305	        0.0000000000	       -0.0503168508	        0.0000000000	        0.0000000000	        0.0000000000	        0.0000000000	        0.0000000000	        0.0000000000	
        0.6278318247	        0.1480106908	       -0.1477588111	       -0.0108708579	        0.0000000000	        0.0000000000	        0.0000000000	     -110.7605537204	      863.0948498445	       17.7998154212	        0.8849927549	        0.0000000000	       -0.0509508557	        0.0000000000	        0.0000000000	        0.0000000000	        0.0000000000	        0.0000000000	        0.0000000000	
        0.6386565113	        0.0003996515	       -0.0003284630	        0.0000053298	        0.0000000000	        0.0000000000	        0.0000000000	      -98.0232479469	      821.7784708899	       17.4990558470	        0.8893926827	        0.0000000000	       -0.0516714291	        0.0000000000	        0.0000000000	        0.0000000000	        0.0000000000	        0.0000000000	        0.0000000000	
        0.6494811979	        0.0001782984	       -0.0001276881	        0.0000056934	        0.0000000000	        0.0000000000	        0.0000000000	      -90.5777653582	      794.0425476049	       17.8173351247	        0.8952862528	        0.0000000000	       -0.0520740853	        0.0000000000	        0.0000000000	        0.0000000000	        0.0000000000	        0.0000000000	        0.0000000000	
        0.6603058846	        0.0013805083	       -0.0008862798	        0.0000551722	        0.0000000000	        0.0000000000	        0.0000000000	      -81.9584277456	      760.1833142626	       17.4765483734	        0.9013533910	        0.0000000000	       -0.0521933559	        0.0000000000	        0.0000000000	        0.0000000000	        0.0000000000	        0.0000000000	        0.0000000000	
